<svg height="472pt" viewBox="-52 0 472 472.048" width="472pt" xmlns="http://www.w3.org/2000/svg"><path d="m247.945312 128.046875c8.878907 0 16 7.199219 16 16 0 8.882813-7.121093 16-16 16h-23.921874c-8.871094 0-16-7.117187-16-16 0-8.800781 7.128906-16 16-16zm0 0" fill="#d7e9ff"/><path d="m152.023438 128.046875c8.808593 0 15.921874 7.199219 15.921874 16 0 8.882813-7.121093 16-15.921874 16h-24c-8.871094 0-16-7.117187-16-16 0-8.800781 7.128906-16 16-16zm0 0" fill="#d7e9ff"/><path d="m196.023438 216.128906c8.808593 0 15.921874 7.128906 15.921874 16 0 8.808594-7.121093 15.917969-15.921874 15.917969h-24c-8.871094 0-16-7.117187-16-15.917969 0-8.871094 7.128906-16 16-16zm0 0" fill="#d7e9ff"/><path d="m247.945312 160.046875c8.878907 0 16-7.117187 16-16 0-8.800781-7.121093-16-16-16h-23.921874c-8.871094 0-16 7.199219-16 16 0 8.882813 7.128906 16 16 16zm.078126 125.601563v50.480468c0 13.199219-10.800782 24-24 24h-80.078126c-13.203124 0-24-10.800781-24-24v-50.480468c-33.601562-21.28125-55.921874-58.800782-55.921874-101.519532l-.078126-48.082031c0-66.230469 53.757813-128 120-128 66.320313 0 120 53.679687 120 120l.078126 56.082031c0 42.726563-22.398438 80.160156-56 101.519532zm-36.078126-53.519532c0-8.871094-7.121093-16-15.921874-16h-24c-8.871094 0-16 7.128906-16 16 0 8.808594 7.128906 15.917969 16 15.917969h24c8.808593 0 15.921874-7.117187 15.921874-15.917969zm-44-88.082031c0-8.800781-7.121093-16-15.921874-16h-24c-8.871094 0-16 7.199219-16 16 0 8.882813 7.128906 16 16 16h24c8.808593 0 15.921874-7.117187 15.921874-16zm0 0" fill="#94c1ff"/><path d="m303.945312 128.046875c0-66.320313-53.679687-120-120-120-3.867187 0-7.679687.25-11.457031.664063 60.398438 6.273437 107.433594 57.257812 107.433594 119.335937l.078125 56.082031c0 42.726563-22.398438 72.160156-56 93.511719v58.488281c0 13.199219-10.800781 24-24 24h24.023438c13.199218 0 24-10.800781 24-24v-50.480468c33.601562-21.359376 56-58.800782 56-101.519532zm0 0" fill="#5c9eff"/><path d="m360.023438 400.128906v55.917969c0 4.488281-3.597657 8-8 8h-56v-127.917969c35.359374 0 64 28.558594 64 64zm0 0" fill="#e6e9ed"/><path d="m272.023438 336.128906h24v127.917969h-24zm0 0" fill="#94c1ff"/><path d="m360.023438 400.128906v55.917969c0 4.488281-3.597657 8-8 8h-56v-127.917969c35.359374 0 64 28.558594 64 64zm0 0" fill="#fff"/><path d="m272.023438 336.128906v127.917969h-176.078126v-127.917969l24-.082031v.082031c0 13.199219 10.796876 24 24 24h80.078126c13.199218 0 24-10.800781 24-24zm0 0" fill="#fff"/><path d="m296.023438 336.128906h-24.023438c35.359375 0 64 28.558594 64 64v55.917969c0 4.488281-3.601562 8-8 8h24.023438c4.402343 0 8-3.511719 8-8v-55.917969c0-35.441406-28.640626-64-64-64zm0 0" fill="#d7e9ff"/><path d="m296.023438 340.816406v-4.6875h-24c8.496093 0 16.585937 1.6875 24 4.6875zm0 0" fill="#5c9eff"/><path d="m71.945312 336.128906v127.917969h-55.921874c-4.480469 0-8-3.511719-8-8v-55.917969c0-35.441406 28.5625-63.914062 63.921874-64zm0 0" fill="#fff"/><path d="m95.945312 336.128906v127.917969h-24v-127.917969zm0 0" fill="#94c1ff"/><g fill="#116fff"><path d="m8.023438 408.070312c-4.421876 0-8.0000005-3.574218-8.0000005-8 0-39.710937 32.3046875-72.015624 72.0156245-72.015624 4.425782 0 8 3.578124 8 8 0 4.425781-3.574218 8-8 8-30.886718 0-56.015624 25.128906-56.015624 56.015624 0 4.425782-3.574219 8-8 8zm0 0"/><path d="m360.023438 408.0625c-4.421876 0-8-3.574219-8-8 0-30.871094-25.128907-56-56-56-4.421876 0-8-3.574219-8-8 0-4.421875 3.578124-8 8-8 39.703124 0 72 32.296875 72 72 0 4.425781-3.574219 8-8 8zm0 0"/><path d="m72.039062 344.054688c-4.414062 0-8-3.574219-8-8 0-4.414063 3.578126-8 8-8l47.96875-.007813c4.417969 0 8 3.578125 8 8 0 4.417969-3.574218 8-8 8zm0 0"/><path d="m8.03125 464.046875c-4.414062 0-8-3.574219-8-8l-.0078125-55.976563c0-4.414062 3.5781245-8 8.0000005-8 4.417968 0 8 3.578126 8 8l.007812 55.976563c0 4.417969-3.574219 8-8 8zm0 0"/><path d="m16.03125 472.046875c-8.824219 0-16-7.175781-16-16 0-4.421875 3.578125-8 8-8 4.425781 0 8 3.578125 8 8v.015625c4.425781 0 8 3.570312 8 7.992188 0 4.417968-3.574219 7.992187-8 7.992187zm0 0"/><path d="m352.023438 472.046875c-4.421876 0-8-3.574219-8-8 0-4.421875 3.578124-8 8-8h.015624c0-4.421875 3.570313-8 7.992188-8 4.417969 0 7.992188 3.578125 7.992188 8 0 8.824219-7.175782 16-16 16zm0 0"/><path d="m360.023438 464.046875c-4.421876 0-8-3.574219-8-8v-55.984375c0-4.421875 3.578124-8 8-8 4.425781 0 8 3.578125 8 8v55.984375c0 4.425781-3.574219 8-8 8zm0 0"/><path d="m352.023438 472.046875h-335.992188c-4.421875 0-8-3.574219-8-8 0-4.421875 3.578125-8 8-8h335.992188c4.425781 0 8 3.578125 8 8 0 4.425781-3.574219 8-8 8zm0 0"/><path d="m136.007812 302.070312c-1.0625 0-2.160156-.207031-3.191406-.671874-46.648437-20.390626-76.792968-66.453126-76.792968-117.34375 0-4.421876 3.578124-8 8-8 4.425781 0 8 3.578124 8 8 0 44.539062 26.375 84.839843 67.191406 102.6875 4.050781 1.769531 5.898437 6.488281 4.128906 10.53125-1.3125 3.007812-4.246094 4.796874-7.335938 4.796874zm0 0"/><path d="m232.023438 302.070312c-3.085938 0-6.023438-1.789062-7.335938-4.796874-1.777344-4.050782.082031-8.769532 4.128906-10.53125 40.824219-17.839844 67.207032-58.140626 67.207032-102.6875 0-4.421876 3.578124-8 8-8 4.425781 0 8 3.578124 8 8 0 50.914062-30.152344 96.96875-76.808594 117.34375-1.039063.464843-2.125.671874-3.191406.671874zm0 0"/><path d="m72.007812 472.046875c-4.421874 0-8-3.574219-8-8v-127.992187c0-4.421876 3.578126-8 8-8 4.425782 0 8 3.578124 8 8v127.992187c0 4.425781-3.574218 8-8 8zm0 0"/><path d="m96.007812 472.046875c-4.421874 0-8-3.574219-8-8v-127.992187c0-4.421876 3.578126-8 8-8 4.425782 0 8 3.578124 8 8v127.992187c0 4.425781-3.574218 8-8 8zm0 0"/><path d="m272.039062 472.046875c-4.421874 0-8-3.574219-8-8v-127.992187c0-4.421876 3.578126-8 8-8 4.425782 0 8 3.578124 8 8v127.992187c0 4.425781-3.574218 8-8 8zm0 0"/><path d="m296.039062 472.046875c-4.421874 0-8-3.574219-8-8v-127.992187c0-4.421876 3.578126-8 8-8 4.425782 0 8 3.578124 8 8v127.992187c0 4.425781-3.574218 8-8 8zm0 0"/><path d="m184.273438 400.0625c-4.425782 0-8.042969-3.574219-8.042969-8 0-4.421875 3.539062-8 7.953125-8h.089844c4.414062 0 8 3.578125 8 8 0 4.425781-3.585938 8-8 8zm0 0"/><path d="m184.273438 440.0625c-4.425782 0-8.042969-3.574219-8.042969-8 0-4.421875 3.539062-8 7.953125-8h.089844c4.414062 0 8 3.578125 8 8 0 4.425781-3.585938 8-8 8zm0 0"/><path d="m64.015625 144.007812c-4.421875 0-8-3.574218-8-8 0-72.457031 59.816406-136.007812 128-136.007812 70.578125 0 128 57.425781 128 128 0 4.425781-3.574219 8-8 8-4.421875 0-8-3.574219-8-8 0-61.761719-50.238281-112-112-112-59.664063 0-112 56.078125-112 120.007812 0 4.425782-3.574219 8-8 8zm0 0"/><path d="m64.023438 192.054688c-4.414063 0-8-3.574219-8-8l-.007813-48.046876c0-4.414062 3.578125-8 8-8 4.417969 0 8 3.578126 8 8l.007813 48.046876c0 4.417968-3.574219 8-8 8zm0 0"/><path d="m304.023438 192.054688c-4.414063 0-8-3.574219-8-8l-.007813-56.054688c0-4.414062 3.578125-8 8-8 4.417969 0 8 3.574219 8 8l.007813 56.054688c0 4.417968-3.574219 8-8 8zm0 0"/><path d="m144.007812 368.0625c-17.648437 0-32-14.351562-32-32 0-4.421875 3.578126-8 8-8 4.425782 0 8 3.578125 8 8 0 8.824219 7.175782 16 16 16 4.425782 0 8 3.578125 8 8 0 4.425781-3.574218 8-8 8zm0 0"/><path d="m224.023438 368.0625c-4.421876 0-8-3.574219-8-8 0-4.421875 3.578124-8 8-8 8.824218 0 16-7.175781 16-16 0-4.421875 3.578124-8 8-8 4.425781 0 8 3.578125 8 8 0 17.648438-14.351563 32-32 32zm0 0"/><path d="m224.023438 368.0625h-80.015626c-4.421874 0-8-3.574219-8-8 0-4.421875 3.578126-8 8-8h80.015626c4.425781 0 8 3.578125 8 8 0 4.425781-3.574219 8-8 8zm0 0"/><path d="m296.023438 344.0625h-48c-4.421876 0-8-3.574219-8-8 0-4.421875 3.578124-8 8-8h48c4.425781 0 8 3.578125 8 8 0 4.425781-3.574219 8-8 8zm0 0"/><path d="m120.007812 344.046875c-4.421874 0-8-3.574219-8-8v-50.488281c0-4.421875 3.578126-8 8-8 4.425782 0 8 3.578125 8 8v50.488281c0 4.425781-3.574218 8-8 8zm0 0"/><path d="m248.023438 344.0625c-4.421876 0-8-3.574219-8-8v-50.488281c0-4.421875 3.578124-8 8-8 4.425781 0 8 3.578125 8 8v50.488281c0 4.425781-3.574219 8-8 8zm0 0"/><path d="m152.015625 344.046875c-4.421875 0-8-3.574219-8-8v-24c0-4.421875 3.578125-8 8-8 4.425781 0 8 3.578125 8 8v24c0 4.425781-3.574219 8-8 8zm0 0"/><path d="m184.015625 344.046875c-4.421875 0-8-3.574219-8-8v-24c0-4.421875 3.578125-8 8-8 4.425781 0 8 3.578125 8 8v24c0 4.425781-3.574219 8-8 8zm0 0"/><path d="m216.015625 344.046875c-4.421875 0-8-3.574219-8-8v-24c0-4.421875 3.578125-8 8-8 4.425781 0 8 3.578125 8 8v24c0 4.425781-3.574219 8-8 8zm0 0"/><path d="m128.03125 168.03125c-13.222656 0-23.992188-10.765625-23.992188-23.992188 0-13.222656 10.769532-23.992187 23.992188-23.992187 4.425781 0 8 3.578125 8 8 0 4.425781-3.574219 8-8 8-4.40625 0-7.992188 3.585937-7.992188 7.992187 0 4.410157 3.585938 7.992188 7.992188 7.992188 4.425781 0 8 3.578125 8 8 0 4.425781-3.574219 8-8 8zm0 0"/><path d="m152.023438 168.03125c-4.421876 0-8-3.574219-8-8 0-4.421875 3.578124-8 8-8 4.410156 0 7.992187-3.582031 7.992187-7.992188 0-4.40625-3.582031-7.992187-7.992187-7.992187-4.421876 0-8-3.574219-8-8 0-4.421875 3.578124-8 8-8 13.222656 0 23.992187 10.769531 23.992187 23.992187 0 13.226563-10.769531 23.992188-23.992187 23.992188zm0 0"/><path d="m152.023438 136.046875h-23.992188c-4.421875 0-8-3.574219-8-8 0-4.421875 3.578125-8 8-8h23.992188c4.425781 0 8 3.578125 8 8 0 4.425781-3.574219 8-8 8zm0 0"/><path d="m152.023438 168.03125h-23.992188c-4.421875 0-8-3.574219-8-8 0-4.421875 3.578125-8 8-8h23.992188c4.425781 0 8 3.578125 8 8 0 4.425781-3.574219 8-8 8zm0 0"/><path d="m172.03125 256.046875c-13.222656 0-23.992188-10.765625-23.992188-23.992187 0-13.222657 10.769532-23.992188 23.992188-23.992188 4.425781 0 8 3.578125 8 8 0 4.425781-3.574219 8-8 8-4.40625 0-7.992188 3.585938-7.992188 7.992188 0 4.410156 3.585938 7.992187 7.992188 7.992187 4.425781 0 8 3.578125 8 8 0 4.425781-3.574219 8-8 8zm0 0"/><path d="m196.023438 256.046875c-4.421876 0-8-3.574219-8-8 0-4.421875 3.578124-8 8-8 4.410156 0 7.992187-3.582031 7.992187-7.992187 0-4.40625-3.582031-7.992188-7.992187-7.992188-4.421876 0-8-3.574219-8-8 0-4.421875 3.578124-8 8-8 13.222656 0 23.992187 10.769531 23.992187 23.992188 0 13.226562-10.769531 23.992187-23.992187 23.992187zm0 0"/><path d="m196.023438 224.0625h-23.992188c-4.421875 0-8-3.574219-8-8 0-4.421875 3.578125-8 8-8h23.992188c4.425781 0 8 3.578125 8 8 0 4.425781-3.574219 8-8 8zm0 0"/><path d="m196.023438 256.046875h-23.992188c-4.421875 0-8-3.574219-8-8 0-4.421875 3.578125-8 8-8h23.992188c4.425781 0 8 3.578125 8 8 0 4.425781-3.574219 8-8 8zm0 0"/><path d="m224.023438 168.03125c-13.222657 0-23.992188-10.765625-23.992188-23.992188 0-13.222656 10.769531-23.992187 23.992188-23.992187 4.425781 0 8 3.578125 8 8 0 4.425781-3.574219 8-8 8-4.40625 0-7.992188 3.585937-7.992188 7.992187 0 4.410157 3.585938 7.992188 7.992188 7.992188 4.425781 0 8 3.578125 8 8 0 4.425781-3.574219 8-8 8zm0 0"/><path d="m248.015625 168.03125c-4.421875 0-8-3.574219-8-8 0-4.421875 3.578125-8 8-8 4.410156 0 7.992187-3.582031 7.992187-7.992188 0-4.40625-3.582031-7.992187-7.992187-7.992187-4.421875 0-8-3.574219-8-8 0-4.421875 3.578125-8 8-8 13.222656 0 23.992187 10.769531 23.992187 23.992187 0 13.226563-10.769531 23.992188-23.992187 23.992188zm0 0"/><path d="m248.015625 136.046875h-23.992187c-4.421876 0-8-3.574219-8-8 0-4.421875 3.578124-8 8-8h23.992187c4.425781 0 8 3.578125 8 8 0 4.425781-3.574219 8-8 8zm0 0"/><path d="m248.015625 168.03125h-23.992187c-4.421876 0-8-3.574219-8-8 0-4.421875 3.578124-8 8-8h23.992187c4.425781 0 8 3.578125 8 8 0 4.425781-3.574219 8-8 8zm0 0"/></g></svg>